<svg width="51" height="42" viewBox="0 0 51 42" fill="none" xmlns="http://www.w3.org/2000/svg">
<path d="M15.2641 25.0007C14.9059 25.0033 14.5474 25.0134 14.1901 25.0309C11.3309 25.1711 8.51352 25.7863 5.95391 26.8652C5.93048 26.8753 5.90741 26.8859 5.88475 26.8969L1.71189 28.8867C1.54371 28.963 1.39755 29.0636 1.28199 29.1828C1.16642 29.3019 1.08379 29.4372 1.03894 29.5806C0.994082 29.724 0.987912 29.8727 1.02079 30.0179C1.05366 30.1632 1.12492 30.302 1.23038 30.4263C1.33584 30.5506 1.47338 30.6579 1.63491 30.7418C1.79644 30.8257 1.97872 30.8846 2.17104 30.915C2.36337 30.9454 2.56186 30.9467 2.75486 30.9189C2.94786 30.891 3.13149 30.8345 3.29497 30.7527L7.41787 28.7874C11.7561 26.9636 16.959 26.7085 21.5752 28.0977C21.5911 28.1027 21.6071 28.1075 21.6233 28.1121L31.5367 30.8017C31.9559 30.9358 32.2077 31.1557 32.3858 31.4856C32.5552 31.7992 32.5844 32.1973 32.5222 32.5093C32.409 32.7757 32.2025 33.0161 31.9036 33.1572C31.5874 33.3065 31.1656 33.4027 30.4089 33.2724L19.7309 31.392C19.5408 31.3556 19.3431 31.348 19.1491 31.3696C18.9551 31.3911 18.7687 31.4415 18.601 31.5176C18.4333 31.5938 18.2875 31.6943 18.1721 31.8131C18.0568 31.932 17.9743 32.0669 17.9293 32.21C17.8844 32.3531 17.8779 32.5014 17.9104 32.6464C17.9428 32.7913 18.0135 32.93 18.1182 33.0542C18.223 33.1785 18.3598 33.2858 18.5206 33.37C18.6813 33.4542 18.8629 33.5135 19.0546 33.5445L29.7423 35.4263L29.748 35.4277C31.1446 35.6682 32.4787 35.4987 33.4771 35.0275C33.7434 34.9018 33.98 34.7563 34.1956 34.5984C34.3863 34.5778 34.5697 34.5293 34.7355 34.4559L42.3646 31.0464C42.4166 31.0233 42.4666 30.9978 42.5144 30.9701C43.1852 30.5795 44.1056 30.6452 44.6662 31.1227C45.2756 31.6417 45.1847 32.3991 44.4625 32.8289L34.4838 38.6169C33.3272 39.2879 31.8301 39.5259 30.4089 39.2663C30.4032 39.2653 30.3974 39.2643 30.3916 39.2634L12.1805 36.1145C11.8246 36.0529 11.4509 36.0924 11.1316 36.2254L2.27865 39.9113C2.10299 39.9792 1.94732 40.0728 1.82089 40.1867C1.69445 40.3006 1.59982 40.4323 1.54262 40.5741C1.48542 40.7158 1.46681 40.8648 1.48789 41.0121C1.50897 41.1594 1.56932 41.302 1.66535 41.4314C1.76138 41.5609 1.89114 41.6746 2.04692 41.7657C2.2027 41.8569 2.38133 41.9237 2.57221 41.9621C2.7631 42.0006 2.96233 42.0099 3.1581 41.9895C3.35387 41.9691 3.54219 41.9195 3.71187 41.8435L12.0691 38.3649L29.7269 41.4188L29.7096 41.4144C32.0007 41.833 34.4246 41.4468 36.2897 40.3648L46.2838 34.5696C46.289 34.5668 46.2941 34.5639 46.2992 34.561C48.3116 33.3631 48.5796 31.1077 46.8813 29.6613C46.0953 28.9919 45.0207 28.6085 43.9073 28.5297C42.794 28.4509 41.6422 28.6766 40.7027 29.2236L40.8526 29.1473L35.4425 31.5648C35.3787 31.2605 35.2834 30.9558 35.1216 30.6562C34.7066 29.8877 33.891 29.145 32.6817 28.7615C32.6583 28.7538 32.6346 28.7466 32.6106 28.7399L22.6761 26.046H22.6742C20.29 25.3287 17.7716 24.9822 15.2641 25.0007Z" fill="white"/>
<path d="M22.7446 27.4457C21.1917 22.3194 21.3274 17.7282 23.4857 13.8499C23.5111 13.8043 23.537 13.7582 23.5634 13.7121C25.5014 10.3124 28.8668 7.42822 33.0371 5.38001C38.2328 2.82809 46.4355 0.798423 48.2701 2.82809C49.788 4.5073 46.6868 8.67864 43.4943 11.078C41.8935 12.2763 40.0207 13.2173 37.9775 13.8499C33.3608 15.2887 24.0472 14.1756 23.568 13.6519" stroke="white" stroke-width="3"/>
<path fill-rule="evenodd" clip-rule="evenodd" d="M21.0648 18.8868C21.9994 17.191 17.3395 13.5727 12.6411 11.7025C11.1029 11.0906 4.672 8.73435 2.63271 10.6826C1.04404 12.2004 2.63696 15.8635 5.30161 17.8896C6.36333 18.6968 10.4272 20.0517 15.8104 19.9293C18.8979 19.8592 20.7729 19.4162 21.0648 18.8868Z" stroke="white" stroke-width="3"/>
</svg>
