<svg width="1919" height="1400" viewBox="0 0 1919 1400" fill="none" xmlns="http://www.w3.org/2000/svg">
<g style="mix-blend-mode:color-burn" filter="url(#filter0_f_143_240)">
<path d="M862.504 1345.33C803.11 1088.4 808.3 858.287 890.848 663.912C891.821 661.623 892.813 659.314 893.821 657.005C967.948 486.612 1096.67 342.06 1256.18 239.404C1454.9 111.503 1768.64 9.77758 1838.81 111.503C1896.87 195.665 1778.25 404.73 1656.15 524.983C1594.92 585.041 1523.29 632.203 1445.14 663.912C1268.56 736.023 912.327 680.236 893.998 653.988" stroke="#73A763" stroke-opacity="0.5" stroke-width="40"/>
<path fill-rule="evenodd" clip-rule="evenodd" d="M789.904 899.602C825.193 817.102 649.231 641.065 471.817 550.077C413.733 520.306 170.897 405.673 93.8915 500.459C33.9022 574.303 94.0521 752.516 194.672 851.09C234.763 890.36 388.22 956.279 591.493 950.325C708.08 946.914 778.881 925.361 789.904 899.602Z" stroke="#73A763" stroke-opacity="0.5" stroke-width="40"/>
</g>
<defs>
<filter id="filter0_f_143_240" x="0" y="0.000366211" width="1924" height="1399.83" filterUnits="userSpaceOnUse" color-interpolation-filters="sRGB">
<feFlood flood-opacity="0" result="BackgroundImageFix"/>
<feBlend mode="normal" in="SourceGraphic" in2="BackgroundImageFix" result="shape"/>
<feGaussianBlur stdDeviation="25" result="effect1_foregroundBlur_143_240"/>
</filter>
</defs>
</svg>
