<svg width="109" height="116" viewBox="0 0 109 116" fill="none" xmlns="http://www.w3.org/2000/svg">
<path d="M28.9028 34.1691C28.9028 22.2006 32.0599 4.2478 54.1593 4.2478C76.2586 4.2478 79.4157 22.2006 79.4157 34.1691" stroke="white" stroke-width="7" stroke-linecap="round" stroke-linejoin="round"/>
<path d="M54.1593 76.0591C57.6464 76.0591 60.4734 73.3799 60.4734 70.0748C60.4734 66.7698 57.6464 64.0906 54.1593 64.0906C50.6721 64.0906 47.8452 66.7698 47.8452 70.0748C47.8452 73.3799 50.6721 76.0591 54.1593 76.0591Z" stroke="white" stroke-width="7"/>
<path d="M54.1592 88.0276V76.0591" stroke="white" stroke-width="7" stroke-linecap="round" stroke-linejoin="round"/>
<path d="M3.64636 52.1219C3.64636 45.5118 9.3002 40.1533 16.2746 40.1533H92.0439C99.0184 40.1533 104.672 45.5118 104.672 52.1219V99.996C104.672 106.606 99.0184 111.965 92.0439 111.965H16.2746C9.3002 111.965 3.64636 106.606 3.64636 99.996V52.1219Z" stroke="white" stroke-width="7" stroke-linecap="round" stroke-linejoin="round"/>
</svg>
