<svg width="124" height="106" viewBox="0 0 124 106" fill="none" xmlns="http://www.w3.org/2000/svg">
<path d="M35.7231 51.8279C34.8419 51.8362 33.9602 51.8682 33.0812 51.9236C26.0476 52.3672 19.1168 54.3144 12.8203 57.7296C12.7626 57.7615 12.7059 57.7949 12.6501 57.8299L2.38497 64.128C1.97125 64.3693 1.61169 64.6879 1.32741 65.0651C1.04313 65.4422 0.839851 65.8703 0.729511 66.3243C0.61917 66.7782 0.603991 67.2489 0.684865 67.7085C0.765738 68.1682 0.941035 68.6077 1.20046 69.0012C1.45989 69.3946 1.79822 69.7341 2.19559 69.9998C2.59296 70.2654 3.04137 70.4518 3.51447 70.548C3.98758 70.6443 4.47586 70.6484 4.95065 70.5602C5.42544 70.472 5.87716 70.2932 6.2793 70.0343L16.4216 63.8136C27.0936 58.0409 39.8924 57.2334 51.2484 61.6306C51.2875 61.6465 51.3269 61.6617 51.3665 61.6762L75.7533 70.1892C76.7847 70.614 77.4041 71.3098 77.8423 72.3539C78.2589 73.3468 78.3306 74.6068 78.1778 75.5942C77.8992 76.4376 77.3912 77.1985 76.656 77.645C75.878 78.1174 74.8406 78.422 72.9791 78.0095L46.7113 72.0577C46.2438 71.9426 45.7573 71.9184 45.28 71.9867C44.8028 72.055 44.3445 72.2144 43.9318 72.4554C43.5192 72.6965 43.1606 73.0145 42.8768 73.3908C42.5931 73.7671 42.3901 74.1941 42.2795 74.6469C42.1689 75.0998 42.1531 75.5693 42.2329 76.0282C42.3127 76.487 42.4865 76.9258 42.7443 77.3191C43.002 77.7124 43.3385 78.0522 43.734 78.3186C44.1295 78.5851 44.5761 78.7728 45.0477 78.8709L71.3391 84.8273C71.3439 84.8288 71.3486 84.8303 71.3533 84.8318C74.7887 85.593 78.0707 85.0565 80.5267 83.5649C81.1817 83.1671 81.764 82.7065 82.2943 82.2068C82.7633 82.1414 83.2144 81.9882 83.6223 81.7556L102.39 70.964C102.518 70.8908 102.641 70.8101 102.758 70.7224C104.408 69.4861 106.673 69.6941 108.052 71.2055C109.551 72.8482 109.327 75.2454 107.551 76.6059L83.0032 94.9262C80.1579 97.05 76.4753 97.8034 72.9791 96.9815C72.9649 96.9784 72.9508 96.9754 72.9366 96.9724L28.1376 87.0056C27.2621 86.8106 26.3426 86.9356 25.5572 87.3565L3.77918 99.0232C3.34706 99.2381 2.96412 99.5346 2.65309 99.895C2.34207 100.255 2.10928 100.672 1.96856 101.121C1.82785 101.57 1.78206 102.041 1.83392 102.507C1.88578 102.974 2.03424 103.425 2.27047 103.835C2.5067 104.245 2.82591 104.604 3.20913 104.893C3.59235 105.182 4.03178 105.393 4.50134 105.515C4.97091 105.636 5.46103 105.666 5.94262 105.601C6.42421 105.537 6.88746 105.38 7.30487 105.139L27.8635 94.1287L71.3013 103.795L71.2588 103.781C76.8949 105.106 82.8575 103.884 87.4458 100.459L112.031 82.1157C112.044 82.1066 112.056 82.0975 112.069 82.0883C117.019 78.2968 117.679 71.1578 113.501 66.5799C111.567 64.461 108.924 63.2472 106.185 62.9978C103.446 62.7484 100.613 63.4629 98.3017 65.1944L98.6703 64.9529L85.3615 72.6046C85.2047 71.6414 84.9701 70.677 84.5723 69.7289C83.5514 67.2963 81.545 64.9454 78.5701 63.7315C78.5124 63.7073 78.4541 63.6845 78.3952 63.6632L53.9564 55.1365H53.9517C48.0868 52.8661 41.8914 51.7695 35.7231 51.8279Z" fill="white"/>
<path d="M69.1548 64.2478C66.0491 51.9588 66.3205 40.9523 70.6369 31.6552C70.6878 31.5457 70.7397 31.4352 70.7924 31.3248C74.6685 23.1747 81.3991 16.2607 89.7399 11.3506C100.131 5.23295 116.537 0.367309 120.206 5.23295C123.242 9.25846 117.039 19.2582 110.654 25.01C107.453 27.8827 103.707 30.1385 99.6207 31.6552C90.3872 35.1043 71.76 32.436 70.8016 31.1805" stroke="white" stroke-width="6"/>
<path fill-rule="evenodd" clip-rule="evenodd" d="M65.7954 43.7299C67.6645 39.6647 58.3447 30.9907 48.948 26.5073C45.8716 25.0404 33.0098 19.3919 28.9312 24.0624C25.7539 27.701 28.9397 36.4823 34.269 41.3395C36.3925 43.2745 44.5203 46.5226 55.2866 46.2292C61.4616 46.0612 65.2116 44.9991 65.7954 43.7299Z" stroke="white" stroke-width="6"/>
</svg>
