<svg width="41" height="41" viewBox="0 0 41 41" fill="none" xmlns="http://www.w3.org/2000/svg">
<path d="M31.0687 13.9926C30.2234 13.1473 29.0588 12.621 27.7817 12.621L23.1547 12.621L17.0018 12.5748C17.8527 11.066 18.8894 9.2271 19.4566 7.92194L19.4581 7.9205C19.7864 7.16631 20.0022 6.33245 20.0033 5.44549C20.0033 5.44452 20.0033 5.44356 20.0033 5.4426C20.0032 3.30443 18.8326 1.78481 17.7129 1.10701C16.5932 0.429206 15.4701 0.3671 15.4701 0.3671C15.2446 0.352165 15.0185 0.386197 14.8074 0.46686C14.5962 0.547523 14.4051 0.672908 14.247 0.83441C14.247 0.83441 6.61846 8.60906 3.95175 11.1296C3.95127 11.1301 3.95079 11.1306 3.95031 11.1311C1.63128 13.3247 0.386348 16.6621 0.44837 19.7763L0.448369 28.5542C0.389772 35.101 5.7238 40.4336 12.2551 40.4937C12.26 40.4937 12.2648 40.4937 12.2696 40.4937L36.0274 40.4937C38.5816 40.4937 40.686 38.3893 40.686 35.835C40.686 33.2807 38.5816 31.1764 36.0274 31.1764H32.1591C32.3294 30.6949 32.4403 30.1855 32.4403 29.6489C32.4403 28.4556 31.9498 27.3848 31.1999 26.5566C31.9498 25.7285 32.4403 24.6576 32.4403 23.4643C32.4403 22.2771 31.9719 21.1986 31.2288 20.372C31.9719 19.5453 32.4403 18.4669 32.4403 17.2797C32.4403 16.0025 31.914 14.838 31.0687 13.9926ZM28.8663 16.195C29.1401 16.4689 29.3076 16.8495 29.3076 17.2797C29.3076 18.14 28.642 18.8056 27.7817 18.8056L20.5672 18.8056C19.7068 18.8056 19.0412 18.14 19.0412 17.2797C19.0409 16.4185 19.7046 15.7548 20.5658 15.7551C20.5662 15.7547 20.5667 15.7542 20.5672 15.7537H23.1316L27.7831 15.7551C28.2133 15.7551 28.5925 15.9212 28.8663 16.195ZM16.3859 3.98586C16.6633 4.21352 16.8687 4.56635 16.8691 5.44116C16.8687 5.81932 16.7761 6.23268 16.585 6.67145C16.5845 6.67193 16.584 6.67241 16.5835 6.6729C16.0682 7.85896 14.7408 10.2712 13.859 11.8205C12.9058 13.4882 14.2017 15.7018 16.1162 15.7018L16.2071 15.7032C16.0255 16.1989 15.9097 16.7259 15.91 17.2811C15.9104 18.4675 16.3778 19.5457 17.1201 20.372C16.3769 21.1986 15.9085 22.2773 15.9085 23.4643C15.9085 24.6576 16.3991 25.7285 17.1489 26.5566C16.3991 27.3848 15.9085 28.4556 15.9085 29.6489C15.9085 32.2032 18.0129 34.3076 20.5672 34.3076L25.2042 34.3091L25.2057 34.3076L27.7816 34.3076L36.0274 34.3091C36.8877 34.3091 37.5533 34.9746 37.5533 35.835C37.5533 36.6954 36.8877 37.361 36.0274 37.361L12.284 37.361C7.42969 37.3163 3.53632 33.4206 3.57963 28.5816C3.57965 28.5768 3.57965 28.572 3.57963 28.5672L3.57963 19.746C3.57974 19.7354 3.57974 19.7249 3.57963 19.7143C3.53681 17.5639 4.59964 14.8322 6.10368 13.4085L6.10512 13.4071C8.75688 10.9005 14.9658 4.56307 15.822 3.69019C15.9422 3.73334 15.9555 3.70379 16.0903 3.78538C16.1941 3.84823 16.2935 3.90998 16.3859 3.98586ZM28.8677 22.3782C29.1415 22.6521 29.3076 23.0341 29.3076 23.4643C29.3076 24.3247 28.642 24.9903 27.7817 24.9903L20.5672 24.9903C19.7068 24.9903 19.0412 24.3247 19.0412 23.4643C19.0412 22.6035 19.7049 21.9387 20.5672 21.9383L27.7817 21.9383C28.2118 21.9383 28.5939 22.1044 28.8677 22.3782ZM28.8663 28.5643C29.1401 28.8381 29.3076 29.2188 29.3076 29.6489C29.3076 30.5093 28.642 31.1749 27.7817 31.1749L25.2057 31.1749H20.5672C19.7068 31.1749 19.0412 30.5093 19.0412 29.6489C19.0412 28.7886 19.7068 28.123 20.5672 28.123L27.7817 28.123C28.2118 28.123 28.5925 28.2905 28.8663 28.5643Z" fill="white"/>
</svg>
