<svg width="42" height="45" viewBox="0 0 42 45" fill="none" xmlns="http://www.w3.org/2000/svg">
<path d="M11.6133 13.3889C11.6133 8.83334 12.8149 2 21.2266 2C29.6382 2 30.8399 8.83334 30.8399 13.3889" stroke="white" stroke-width="3" stroke-linecap="round" stroke-linejoin="round"/>
<path d="M21.2266 29.3334C22.5539 29.3334 23.6299 28.3136 23.6299 27.0556C23.6299 25.7976 22.5539 24.7778 21.2266 24.7778C19.8992 24.7778 18.8232 25.7976 18.8232 27.0556C18.8232 28.3136 19.8992 29.3334 21.2266 29.3334Z" stroke="white" stroke-width="3"/>
<path d="M21.2266 33.8889V29.3334" stroke="white" stroke-width="3" stroke-linecap="round" stroke-linejoin="round"/>
<path d="M2 20.2222C2 17.7062 4.15201 15.6666 6.80665 15.6666H35.6466C38.3013 15.6666 40.4532 17.7062 40.4532 20.2222V38.4444C40.4532 40.9605 38.3013 43 35.6466 43H6.80665C4.15201 43 2 40.9605 2 38.4444V20.2222Z" stroke="white" stroke-width="3" stroke-linecap="round" stroke-linejoin="round"/>
</svg>
