<svg width="50" height="38" viewBox="0 0 50 38" fill="none" xmlns="http://www.w3.org/2000/svg">
<path d="M2 6.78724C2 4.14332 4.09851 2 6.68716 2H34.8101C37.3988 2 39.4973 4.14332 39.4973 6.78724V25.9362C39.4973 28.5802 37.3988 30.7235 34.8101 30.7235H6.68716C4.09851 30.7235 2 28.5802 2 25.9362V6.78724Z" stroke="white" stroke-width="3" stroke-linecap="round" stroke-linejoin="round"/>
<path d="M26.6556 21.8049C26.6556 20.2113 27.9061 18.9194 29.4487 18.9194H46.2069C47.7495 18.9194 48.9999 20.2113 48.9999 21.8049V33.3467C48.9999 34.9404 47.7495 36.2322 46.2069 36.2322H29.4487C27.9061 36.2322 26.6556 34.9404 26.6556 33.3467V21.8049Z" fill="white" stroke="white" stroke-width="2" stroke-linecap="round" stroke-linejoin="round"/>
</svg>
