<svg width="134" height="100" viewBox="0 0 134 100" fill="none" xmlns="http://www.w3.org/2000/svg">
<path d="M4.39032 17.1362C4.39032 10.0181 10.04 4.2478 17.0093 4.2478H92.723C99.6925 4.2478 105.342 10.0181 105.342 17.1362V68.6899C105.342 75.8082 99.6925 81.5783 92.723 81.5783H17.0093C10.04 81.5783 4.39032 75.8082 4.39032 68.6899V17.1362Z" stroke="white" stroke-width="7" stroke-linecap="round" stroke-linejoin="round"/>
<path d="M70.7695 57.5669C70.7695 53.2766 74.1361 49.7986 78.289 49.7986H123.406C127.559 49.7986 130.926 53.2766 130.926 57.5669V88.6404C130.926 92.9309 127.559 96.4088 123.406 96.4088H78.289C74.1361 96.4088 70.7695 92.9309 70.7695 88.6404V57.5669Z" fill="white" stroke="white" stroke-width="6" stroke-linecap="round" stroke-linejoin="round"/>
</svg>
