<svg fill="none" xmlns="http://www.w3.org/2000/svg" width='110' height='110' viewBox="22.23 3.2 94.73 94.48">
    <path d="M94.3194 35.2918C92.3295 33.302 89.5882 32.0631 86.5819 32.0631L75.6904 32.0631L61.2068 31.9544C63.2097 28.4027 65.6501 24.074 66.9853 21.0017L66.9887 20.9983C67.7616 19.223 68.2696 17.2602 68.272 15.1723C68.272 15.1701 68.272 15.1678 68.272 15.1655C68.2719 10.1324 65.5163 6.55528 62.8806 4.95978C60.2448 3.36427 57.6011 3.21808 57.6011 3.21808C57.0703 3.18292 56.5381 3.26303 56.0412 3.45291C55.5442 3.64278 55.0942 3.93793 54.7221 4.3181C54.7221 4.3181 36.7649 22.6192 30.4877 28.5525C30.4865 28.5536 30.4854 28.5548 30.4843 28.5559C25.0254 33.7196 22.0949 41.5756 22.2409 48.9063L22.2409 69.569C22.103 84.9796 34.659 97.5323 50.0334 97.6739C50.0447 97.6739 50.056 97.6739 50.0674 97.6739L105.992 97.6738C112.004 97.6739 116.958 92.7202 116.958 86.7076C116.958 80.695 112.004 75.7413 105.992 75.7413H96.8861C97.2871 74.608 97.5482 73.4088 97.5482 72.1459C97.5482 69.3369 96.3935 66.8162 94.6284 64.8668C96.3934 62.9173 97.5482 60.3966 97.5482 57.5876C97.5482 54.7929 96.4455 52.2544 94.6963 50.3085C96.4456 48.3624 97.5482 45.824 97.5482 43.0293C97.5482 40.023 96.3093 37.2817 94.3194 35.2918ZM89.1351 40.4762C89.7796 41.1207 90.174 42.0167 90.174 43.0293C90.174 45.0546 88.6072 46.6214 86.5819 46.6214L69.5995 46.6214C67.5742 46.6214 66.0075 45.0546 66.0075 43.0293C66.0066 41.0023 67.5691 39.4398 69.5961 39.4407C69.5972 39.4395 69.5984 39.4384 69.5995 39.4373L75.636 39.4373L86.5853 39.4407C87.598 39.4407 88.4905 39.8316 89.1351 40.4762ZM59.757 11.7364C60.4099 12.2723 60.8935 13.1029 60.8944 15.1621C60.8934 16.0523 60.6755 17.0253 60.2256 18.0582C60.2244 18.0593 60.2233 18.0604 60.2222 18.0616C59.0091 20.8535 55.8846 26.5317 53.8088 30.1788C51.5649 34.1045 54.6154 39.3151 59.1222 39.315L59.336 39.3184C58.9085 40.4852 58.6361 41.7259 58.6366 43.0327C58.6377 45.8254 59.738 48.3633 61.4852 50.3085C59.7357 52.2543 58.6333 54.7934 58.6333 57.5876C58.6333 60.3966 59.788 62.9173 61.5531 64.8668C59.788 66.8162 58.6333 69.3369 58.6333 72.1459C58.6333 78.1585 63.5869 83.1122 69.5995 83.1122L80.5148 83.1156L80.5182 83.1122H86.5819L105.992 83.1156C108.017 83.1156 109.584 84.6823 109.584 86.7076C109.584 88.7329 108.017 90.2996 105.992 90.2996L50.1013 90.2996C38.6746 90.1944 29.5098 81.0241 29.6117 69.6335C29.6118 69.6222 29.6118 69.6109 29.6117 69.5996L29.6117 48.835C29.612 48.8101 29.612 48.7852 29.6117 48.7603C29.5109 43.6983 32.0128 37.2682 35.5532 33.9168L35.5566 33.9134C41.7987 28.013 56.4141 13.0952 58.4295 11.0404C58.7126 11.142 58.7438 11.0725 59.061 11.2645C59.3054 11.4125 59.5394 11.5578 59.757 11.7364ZM89.1385 55.0311C89.783 55.6756 90.174 56.575 90.174 57.5876C90.174 59.6129 88.6072 61.1797 86.5819 61.1797H69.5995C67.5742 61.1797 66.0075 59.6129 66.0075 57.5876C66.0075 55.5613 67.5697 53.9964 69.5995 53.9956L86.5819 53.9956C87.5946 53.9956 88.4939 54.3865 89.1385 55.0311ZM89.1351 69.5928C89.7796 70.2373 90.174 71.1333 90.174 72.1459C90.174 74.1712 88.6072 75.738 86.5819 75.738H80.5182H69.5995C67.5742 75.738 66.0075 74.1712 66.0075 72.1459C66.0075 70.1206 67.5742 68.5539 69.5995 68.5539H86.5819C87.5946 68.5539 88.4905 68.9482 89.1351 69.5928Z" fill="white"></path>
</svg>